<?xml version="1.0" standalone="no"?>
<!DOCTYPE svg PUBLIC "-//W3C//DTD SVG 20010904//EN"
 "http://www.w3.org/TR/2001/REC-SVG-20010904/DTD/svg10.dtd">
<svg version="1.0" xmlns="http://www.w3.org/2000/svg"
 width="151.000000pt" height="151.000000pt" viewBox="0 0 151.000000 151.000000"
 preserveAspectRatio="xMidYMid meet">

<g transform="translate(0.000000,151.000000) scale(0.100000,-0.100000)"
fill="#000000" stroke="none">
<path d="M590 1186 c-152 -35 -275 -98 -377 -193 -48 -44 -54 -72 -23 -103 29
-29 41 -26 105 26 179 146 385 202 595 160 84 -17 203 -66 262 -107 16 -12 33
-18 37 -13 3 5 12 10 20 12 36 8 84 33 75 40 -75 65 -189 127 -299 162 -87 28
-307 37 -395 16z m188 -83 c-21 -2 -55 -2 -75 0 -21 2 -4 4 37 4 41 0 58 -2
38 -4z m69 1 c-3 -3 -12 -4 -19 -1 -8 3 -5 6 6 6 11 1 17 -2 13 -5z m243 -69
c17 -9 30 -18 30 -21 0 -4 -59 23 -69 32 -10 9 13 3 39 -11z"/>
<path d="M618 954 c-73 -17 -160 -61 -226 -113 -45 -36 -52 -46 -52 -76 0 -24
6 -37 19 -45 32 -17 51 -12 94 25 99 85 242 127 367 108 77 -12 167 -50 221
-93 l36 -29 39 40 39 41 -40 34 c-122 103 -330 149 -497 108z m250 -79 c64
-15 122 -41 157 -70 11 -9 0 -5 -25 9 -80 44 -152 59 -264 54 -79 -3 -115 -10
-163 -30 -77 -32 -84 -26 -8 7 100 45 199 54 303 30z m207 -105 c10 -11 16
-20 13 -20 -3 0 -13 9 -23 20 -10 11 -16 20 -13 20 3 0 13 -9 23 -20z"/>
<path d="M663 726 c-57 -19 -129 -61 -148 -88 -21 -31 -19 -45 3 -25 10 10 27
17 38 17 23 -1 54 -23 54 -39 0 -15 3 -14 46 11 67 39 183 26 246 -29 15 -13
20 -11 52 24 19 21 36 41 36 45 0 12 -62 55 -105 73 -55 23 -169 29 -222 11z
m215 -26 c28 -12 57 -28 63 -36 16 -20 -5 -18 -25 2 -15 14 -16 12 -16 -19 l0
-34 -52 18 c-66 23 -109 23 -174 1 -49 -17 -51 -17 -46 0 3 11 -3 24 -14 32
-17 13 -16 14 7 26 81 44 170 48 257 10z"/>
<path d="M712 497 l-23 -13 31 -42 c16 -23 34 -42 38 -42 4 0 23 16 42 35 31
32 33 37 19 50 -21 22 -79 28 -107 12z m84 -13 c18 -14 18 -15 -4 -4 -13 7
-36 9 -50 6 -20 -5 -23 -4 -12 4 21 14 43 12 66 -6z"/>
</g>
</svg>
